<svg width="48" height="48" viewBox="0 0 48 48" fill="none" xmlns="http://www.w3.org/2000/svg">
<rect width="48" height="48" rx="12" fill="#8524E5" fill-opacity="0.1"/>
<path d="M24.8305 14.18C24.5699 14.0611 24.2868 13.9996 24.0005 13.9996C23.7141 13.9996 23.431 14.0611 23.1705 14.18L14.6005 18.08C14.423 18.1582 14.2721 18.2864 14.1662 18.4488C14.0603 18.6113 14.0039 18.8011 14.0039 18.995C14.0039 19.1889 14.0603 19.3787 14.1662 19.5411C14.2721 19.7036 14.423 19.8317 14.6005 19.91L23.1805 23.82C23.441 23.9388 23.7241 24.0003 24.0105 24.0003C24.2968 24.0003 24.5799 23.9388 24.8405 23.82L33.4205 19.92C33.5979 19.8417 33.7488 19.7136 33.8547 19.5511C33.9606 19.3887 34.017 19.1989 34.017 19.005C34.017 18.8111 33.9606 18.6213 33.8547 18.4588C33.7488 18.2964 33.5979 18.1682 33.4205 18.09L24.8305 14.18Z" stroke="#8524E5" stroke-width="2" stroke-linecap="round" stroke-linejoin="round"/>
<path d="M34 29.65L24.83 33.81C24.5694 33.9288 24.2864 33.9904 24 33.9904C23.7136 33.9904 23.4306 33.9288 23.17 33.81L14 29.65" stroke="#8524E5" stroke-width="2" stroke-linecap="round" stroke-linejoin="round"/>
<path d="M34 24.65L24.83 28.81C24.5694 28.9288 24.2864 28.9904 24 28.9904C23.7136 28.9904 23.4306 28.9288 23.17 28.81L14 24.65" stroke="#8524E5" stroke-width="2" stroke-linecap="round" stroke-linejoin="round"/>
</svg>
